<?xml version="1.0" standalone="no"?>
<!DOCTYPE svg PUBLIC "-//W3C//DTD SVG 20010904//EN"
 "http://www.w3.org/TR/2001/REC-SVG-20010904/DTD/svg10.dtd">
<svg version="1.0" xmlns="http://www.w3.org/2000/svg"
 width="276.000000pt" height="276.000000pt" viewBox="0 0 276.000000 276.000000"
 preserveAspectRatio="xMidYMid meet">
<metadata>
Created by potrace 1.14, written by Peter Selinger 2001-2017
</metadata>
<g transform="translate(0.000000,276.000000) scale(0.100000,-0.100000)"
fill="#000000" stroke="none">
<path d="M1313 2693 c-14 -5 -18 -88 -7 -117 8 -22 34 -20 34 2 0 10 15 23 40
34 44 18 52 44 22 71 -18 16 -63 21 -89 10z m70 -38 c-1 -5 -8 -14 -17 -20
-18 -11 -42 7 -31 25 8 13 51 9 48 -5z"/>
<path d="M1116 2649 c-44 -52 -27 -109 34 -109 34 0 70 40 70 77 0 68 -59 86
-104 32z m52 -42 c14 -17 -2 -42 -22 -34 -20 8 -21 47 -2 47 7 0 18 -6 24 -13z"/>
<path d="M1645 2660 c-3 -5 -8 -31 -12 -58 -6 -57 4 -69 66 -74 57 -4 66 17
11 26 -26 4 -40 11 -40 22 0 8 6 14 13 13 23 -3 37 1 37 10 0 5 -10 11 -22 13
-37 5 -16 23 25 21 38 -2 53 19 21 31 -25 10 -92 7 -99 -4z"/>
<path d="M913 2615 c-38 -16 -42 -43 -19 -100 12 -28 20 -35 43 -35 42 0 73
26 73 60 0 31 -23 44 -66 40 -37 -4 -38 2 -2 14 20 6 38 16 40 21 5 16 -34 16
-69 0z m67 -79 c0 -18 -30 -30 -43 -17 -5 5 -6 14 -3 20 10 16 46 13 46 -3z"/>
<path d="M1860 2582 c-51 -41 -7 -138 59 -130 37 4 35 33 -3 33 -36 0 -56 27
-40 53 12 17 41 20 82 7 38 -12 27 24 -13 41 -45 18 -58 18 -85 -4z"/>
<path d="M744 2536 c-17 -13 -17 -16 -3 -28 23 -20 51 -67 44 -78 -11 -17 16
-21 41 -5 22 14 26 43 3 30 -13 -9 -50 57 -43 77 7 22 -15 24 -42 4z"/>
<path d="M2056 2494 c-3 -7 4 -22 15 -32 18 -18 18 -21 4 -56 -27 -65 3 -79
35 -16 15 30 26 39 42 37 14 -1 23 4 26 16 2 10 -2 17 -11 17 -8 0 -35 11 -60
24 -37 20 -46 22 -51 10z"/>
<path d="M634 2467 c-3 -9 4 -37 16 -62 18 -37 27 -45 49 -45 32 0 71 37 71
68 0 30 -31 45 -66 32 -21 -8 -31 -7 -45 6 -17 15 -19 15 -25 1z m102 -38 c10
-17 -23 -46 -38 -31 -8 8 -8 15 2 27 15 18 26 19 36 4z"/>
<path d="M477 2352 c-15 -15 -27 -35 -27 -44 0 -16 73 -88 89 -88 5 0 23 16
41 36 39 45 39 87 0 92 -14 2 -29 10 -33 18 -13 22 -41 16 -70 -14z m41 -24
c-6 -18 -28 -21 -28 -4 0 9 7 16 16 16 9 0 14 -5 12 -12z m62 -32 c0 -21 -23
-36 -40 -26 -11 7 -11 11 -1 24 16 20 41 21 41 2z"/>
<path d="M2207 2342 c-20 -21 -37 -43 -37 -49 0 -16 58 -63 79 -63 40 0 54 49
24 82 -14 15 -15 23 -6 37 12 20 8 31 -12 31 -6 0 -28 -17 -48 -38z m43 -47
c10 -12 10 -19 2 -27 -15 -15 -48 14 -38 31 10 15 21 14 36 -4z"/>
<path d="M197 1953 c-35 -95 -44 -126 -62 -222 -19 -107 -20 -331 0 -445 17
-97 67 -261 89 -291 26 -36 26 -10 0 54 -54 132 -76 245 -81 413 -6 180 9 294
59 438 42 121 41 120 30 120 -6 0 -22 -30 -35 -67z"/>
<path d="M2540 2016 c0 -2 16 -51 35 -108 87 -262 88 -543 0 -798 -17 -52 -36
-103 -40 -114 -6 -13 -4 -17 4 -15 19 7 58 108 89 229 24 95 27 123 27 290 0
144 -4 204 -19 270 -22 100 -74 250 -87 250 -5 0 -9 -2 -9 -4z"/>
<path d="M1570 1868 c-70 -20 -93 -65 -94 -188 l-1 -75 -82 -33 c-45 -17 -95
-35 -111 -38 l-30 -6 -4 93 c-5 108 -22 150 -70 175 -36 18 -104 22 -119 7
-15 -15 -12 -239 4 -311 l14 -63 -28 -16 c-53 -31 -49 -56 11 -74 38 -12 39
-13 70 -113 18 -55 42 -128 55 -161 l23 -60 64 2 c35 2 69 5 76 8 18 7 8 98
-19 179 -11 32 -26 84 -33 116 -16 67 -18 64 86 99 l57 19 11 -51 c6 -29 16
-82 22 -119 7 -38 15 -68 19 -68 3 0 4 -12 2 -27 -3 -20 -2 -24 5 -14 8 11 11
9 17 -10 31 -101 46 -128 75 -134 35 -8 83 15 106 50 11 17 16 46 15 93 -1 84
-17 235 -31 282 -17 58 -12 84 20 112 31 27 34 43 22 113 -6 31 -12 40 -27 40
-15 0 -21 9 -26 40 -4 22 -3 44 2 50 14 15 10 62 -7 79 -17 18 -42 19 -94 4z"/>
<path d="M2414 738 c-53 -85 -61 -145 -14 -103 18 17 25 17 53 7 46 -19 50
-19 54 -2 2 10 -10 22 -32 33 -26 12 -35 23 -35 41 0 29 -15 42 -26 24z"/>
<path d="M310 701 c-27 -26 -38 -44 -34 -55 8 -20 18 -20 34 -1 12 14 15 14
32 -1 17 -16 17 -19 2 -35 -10 -11 -14 -25 -10 -35 6 -15 10 -14 34 8 15 14
39 33 55 43 48 31 26 61 -25 34 -16 -9 -24 -8 -36 5 -14 14 -14 18 6 39 50 53
-2 51 -58 -2z"/>
<path d="M2273 574 c-7 -3 -22 -21 -34 -40 -19 -31 -20 -37 -6 -57 8 -12 31
-31 50 -42 l36 -19 27 24 c35 34 48 60 36 72 -6 6 -17 -1 -31 -21 -13 -17 -29
-31 -37 -31 -17 0 -17 5 -2 30 17 26 2 37 -21 16 -31 -28 -37 1 -7 33 30 32
25 49 -11 35z"/>
<path d="M455 538 c-63 -36 -38 -108 38 -108 40 0 77 28 77 58 -1 48 -67 77
-115 50z m43 -50 c-4 -29 -38 -38 -38 -10 0 22 8 32 27 32 9 0 13 -8 11 -22z"/>
<path d="M2124 445 c-3 -8 1 -24 10 -36 14 -21 14 -24 -1 -41 -16 -18 -18 -17
-44 8 -25 24 -29 25 -35 10 -4 -10 4 -30 20 -51 31 -41 61 -59 83 -51 14 6 14
9 -2 27 -17 18 -18 21 -2 36 15 15 18 15 34 0 12 -11 23 -13 33 -7 12 8 10 14
-11 37 -15 15 -34 40 -44 56 -19 30 -33 34 -41 12z"/>
<path d="M720 338 c-27 -45 -35 -88 -19 -99 8 -5 31 -14 52 -21 49 -15 73 -2
70 38 -1 15 3 34 9 41 13 16 -3 38 -43 59 -40 20 -47 18 -69 -18z m70 -19 c0
-5 -7 -9 -15 -9 -15 0 -20 12 -9 23 8 8 24 -1 24 -14z m-12 -62 c2 -11 -3 -17
-16 -17 -24 0 -32 8 -25 26 7 20 37 13 41 -9z"/>
<path d="M910 224 c-27 -62 -25 -72 15 -91 28 -13 39 -14 60 -5 41 19 43 41 4
76 -20 17 -33 38 -31 48 7 38 -29 17 -48 -28z m68 -57 c2 -11 -3 -17 -17 -17
-23 0 -35 15 -26 31 10 15 39 6 43 -14z"/>
<path d="M1794 256 c-3 -7 -4 -40 -2 -72 2 -47 7 -59 21 -62 10 -2 17 3 17 12
0 23 38 40 56 25 24 -20 41 4 22 33 -43 65 -101 98 -114 64z m55 -50 c8 -10 8
-16 -3 -25 -11 -9 -15 -8 -20 5 -13 34 1 47 23 20z"/>
<path d="M1044 215 c6 -17 -18 -80 -35 -91 -9 -5 -7 -11 6 -21 33 -23 71 -14
46 13 -11 11 17 86 30 78 5 -3 9 1 9 9 0 15 -20 27 -47 27 -9 0 -13 -6 -9 -15z"/>
<path d="M1598 199 c-21 -11 -23 -51 -7 -98 12 -34 39 -42 39 -12 0 11 9 23
20 26 25 8 50 33 50 50 0 37 -62 58 -102 34z m65 -34 c-3 -20 -33 -31 -43 -15
-5 8 -6 18 -3 23 7 11 48 4 46 -8z"/>
<path d="M1170 159 c-6 -22 -10 -50 -8 -62 6 -44 96 -48 118 -6 14 25 1 44
-44 65 l-31 14 43 -4 c30 -3 42 0 42 9 0 17 -23 25 -70 25 -37 0 -40 -2 -50
-41z m64 -35 c25 -10 19 -34 -9 -34 -24 0 -34 18 -18 33 8 8 8 8 27 1z"/>
<path d="M1421 176 c-45 -25 -64 -82 -35 -110 53 -53 151 36 110 99 -18 28
-39 31 -75 11z m33 -63 c4 -9 2 -21 -3 -26 -15 -15 -41 0 -41 23 0 25 35 28
44 3z"/>
</g>
</svg>
